<?xml version="1.0" encoding="utf-8"?>
<!-- Generator: Adobe Illustrator 16.0.0, SVG Export Plug-In . SVG Version: 6.00 Build 0)  -->
<!DOCTYPE svg PUBLIC "-//W3C//DTD SVG 1.1//EN" "http://www.w3.org/Graphics/SVG/1.1/DTD/svg11.dtd">
<svg version="1.1" id="logo-wrapper" xmlns="http://www.w3.org/2000/svg" xmlns:xlink="http://www.w3.org/1999/xlink" x="0px"
	 y="0px" width="113px" height="41px" viewBox="0 0 113 41" enable-background="new 0 0 113 41" xml:space="preserve">
<g id="logo-group">
	<g id="group2">
		<path fill="#606362" d="M33.511,37.047v-0.021c0-2.104,1.544-3.966,3.846-3.966c1.293,0,2.092,0.372,2.859,1.019l-0.559,0.658
			c-0.591-0.516-1.249-0.877-2.334-0.877c-1.698,0-2.914,1.436-2.914,3.145v0.021c0,1.83,1.172,3.188,3.035,3.188
			c0.876,0,1.687-0.339,2.213-0.767v-1.906h-2.334v-0.778h3.167v3.057c-0.712,0.636-1.786,1.173-3.079,1.173
			C35,40.992,33.511,39.239,33.511,37.047z"/>
		<path fill="#606362" d="M43.341,33.191h3.298c0.942,0,1.698,0.285,2.18,0.767c0.373,0.372,0.592,0.909,0.592,1.512v0.022
			c0,1.271-0.876,2.016-2.082,2.234l2.356,3.134h-1.063l-2.224-2.979h-2.191v2.979h-0.866V33.191z M46.562,37.102
			c1.15,0,1.972-0.591,1.972-1.576v-0.022c0-0.942-0.723-1.513-1.961-1.513h-2.366v3.111H46.562z"/>
		<path fill="#606362" d="M51.823,37.047v-0.021c0-2.114,1.589-3.966,3.923-3.966c2.333,0,3.9,1.829,3.9,3.944v0.021
			c0,2.115-1.589,3.967-3.923,3.967C53.39,40.992,51.823,39.162,51.823,37.047z M58.748,37.047v-0.021
			c0-1.742-1.271-3.166-3.024-3.166s-3.001,1.402-3.001,3.145v0.021c0,1.742,1.271,3.167,3.024,3.167
			C57.499,40.192,58.748,38.79,58.748,37.047z"/>
		<path fill="#606362" d="M62.257,37.65v-4.459h0.865v4.404c0,1.654,0.876,2.585,2.345,2.585c1.413,0,2.312-0.854,2.312-2.53v-4.459
			h0.866v4.393c0,2.235-1.282,3.396-3.199,3.396C63.55,40.98,62.257,39.819,62.257,37.65z"/>
		<path fill="#606362" d="M71.594,33.191h2.87c1.731,0,2.871,0.92,2.871,2.432v0.021c0,1.655-1.381,2.51-3.013,2.51h-1.863v2.706
			h-0.865V33.191z M74.354,37.365c1.271,0,2.104-0.68,2.104-1.688v-0.021c0-1.096-0.821-1.666-2.06-1.666h-1.939v3.375H74.354z"/>
	</g>
	<g id="group1">
		<g>
			<path fill="#121212" d="M80.643,7.25c-5.922,0-10.72,4.799-10.72,10.721c0,5.921,4.798,10.72,10.72,10.72
				s10.723-4.799,10.723-10.72C91.365,12.049,86.564,7.25,80.643,7.25z M80.643,23.1c-2.832,0-5.129-2.295-5.129-5.128
				c0-2.832,2.297-5.13,5.129-5.13c2.833,0,5.129,2.298,5.129,5.13C85.771,20.804,83.476,23.1,80.643,23.1z"/>
			<path fill="#121212" d="M20.897,7.511c-1.229,0-2.517,0-3.881,0c-1.662,0-2.45,0.42-3.408,1.181l-7.728,7.551V7.978
				c0-0.261-0.214-0.475-0.475-0.475H0.475C0.214,7.503,0,7.717,0,7.978V28.28c0,0.261,0.214,0.476,0.475,0.476h4.929
				c0.261,0,0.475-0.215,0.475-0.476v-8.428l7.964,7.882c0.812,0.642,1.78,0.971,3.061,0.971c0.454,0,3.267,0,3.784,0
				c1.228,0,0.774-0.707,0.774-0.707l-9.876-9.878l9.911-9.914C21.498,8.206,22.126,7.511,20.897,7.511z"/>
			<path fill="#121212" d="M43.771,7.511c-1.229,0-2.519,0-3.882,0c-1.663,0-2.449,0.42-3.409,1.181l-7.576,7.401V7.978
				c0-0.261-0.214-0.475-0.475-0.475H23.5c-0.261,0-0.475,0.213-0.475,0.475V28.28c0,0.261,0.214,0.476,0.475,0.476h4.929
				c0.261,0,0.475-0.215,0.475-0.476v-8.277l7.812,7.731c0.812,0.642,1.78,0.971,3.063,0.971c0.453,0,3.266,0,3.784,0
				c1.228,0,0.775-0.707,0.775-0.707l-9.877-9.878l9.911-9.914C44.372,8.206,45,7.511,43.771,7.511z"/>
			<path fill="#121212" d="M112.952,27.934l-7.83-9.859l7.603-9.869c0,0,0.628-0.695-0.6-0.695h-3.183
				c-1.553,0-2.472,0.147-3.235,1.083l-3.813,5.399L97.785,8.53c-0.765-0.938-1.648-1.019-3.219-1.019h-3.153
				c-1.229,0-0.63,0.695-0.63,0.695l7.816,9.869l-7.719,9.923c0,0-0.454,0.707,0.775,0.707h2.863c0.97,0,2.474,0.068,3.394-0.852
				c0.016-0.016,2.065-3.029,3.981-5.52c1.935,2.452,4.008,5.406,4.025,5.421c0.921,0.923,2.537,0.95,3.508,0.95h2.652
				C113.309,28.705,112.952,27.934,112.952,27.934z"/>
			<path fill="#121212" d="M57.117,7.525c-1.969,0.156-3.67,1.087-5.076,2.423V0.322c0-0.25-0.19-0.382-0.424-0.295L46.588,1.91
				c-0.233,0.086-0.425,0.362-0.425,0.613v25.69c0,0.25,0.204,0.453,0.455,0.453h4.971c0.225,0,0.403-0.167,0.438-0.382v-8.568V19.2
				h0.007c-0.001-0.049-0.007,0.565-0.007,0.516c0-2.905,1.866-6.005,5.253-7.003c2.888-0.852,5.354,1.247,5.354,4.151
				c0,2.903-2.467,6.012-5.354,6.364c-1.121,0.137-2.06,0.055-2.821-0.213v5.616h2.725c0.004,0,0.006,0,0.01,0
				c6.395,0,10.823-4.628,10.961-10.598C68.304,11.555,63.725,7,57.117,7.525z"/>
		</g>
	</g>
</g>
</svg>
